<?xml version="1.0" encoding="UTF-8" standalone="no"?>
<svg
   viewBox="0 0 128 128"
   width="128"
   height="128"
   version="1.1"
   id="svg11"
   sodipodi:docname="hotnote.svg"
   inkscape:version="1.3 (0e150ed, 2023-07-21)"
   xmlns:inkscape="http://www.inkscape.org/namespaces/inkscape"
   xmlns:sodipodi="http://sodipodi.sourceforge.net/DTD/sodipodi-0.dtd"
   xmlns="http://www.w3.org/2000/svg"
   xmlns:svg="http://www.w3.org/2000/svg">
  <sodipodi:namedview
     id="namedview11"
     pagecolor="#ffffff"
     bordercolor="#000000"
     borderopacity="0.25"
     inkscape:showpageshadow="2"
     inkscape:pageopacity="0.0"
     inkscape:pagecheckerboard="0"
     inkscape:deskcolor="#d1d1d1"
     showgrid="false"
     inkscape:zoom="4.4636116"
     inkscape:cx="59.256948"
     inkscape:cy="71.018725"
     inkscape:window-width="1854"
     inkscape:window-height="1011"
     inkscape:window-x="0"
     inkscape:window-y="0"
     inkscape:window-maximized="1"
     inkscape:current-layer="svg11" />
  <defs
     id="defs7">
    <linearGradient
       id="flame1"
       x1="0"
       y1="1"
       x2="0"
       y2="0">
      <stop
         offset="0%"
         stop-color="#ff6d00"
         id="stop1" />
      <stop
         offset="50%"
         stop-color="#ff1744"
         id="stop2" />
      <stop
         offset="100%"
         stop-color="#ffab00"
         id="stop3" />
    </linearGradient>
    <linearGradient
       id="flame2"
       x1="65.431898"
       y1="57.219798"
       x2="65.431898"
       y2="27.02046"
       gradientTransform="matrix(0.79471941,0,0,1.2583057,0,3.903903)"
       gradientUnits="userSpaceOnUse">
      <stop
         offset="0%"
         stop-color="#ffab00"
         id="stop4" />
      <stop
         offset="100%"
         stop-color="#fff176"
         id="stop5" />
    </linearGradient>
    <linearGradient
       id="card"
       x1="0"
       y1="0"
       x2="0"
       y2="1">
      <stop
         offset="0%"
         stop-color="#fff3e0"
         id="stop6" />
      <stop
         offset="100%"
         stop-color="#ffe0b2"
         id="stop7" />
    </linearGradient>
  </defs>
  <!-- Notepad body -->
  <rect
     x="24"
     y="38"
     width="80"
     height="82"
     rx="8"
     ry="8"
     fill="url(#card)"
     stroke="#ff8f00"
     stroke-width="3"
     id="rect7" />
  <!-- Ruled lines -->
  <line
     x1="36"
     y1="62"
     x2="92"
     y2="62"
     stroke="#ffcc80"
     stroke-width="2.5"
     stroke-linecap="round"
     id="line7" />
  <line
     x1="36"
     y1="76"
     x2="92"
     y2="76"
     stroke="#ffcc80"
     stroke-width="2.5"
     stroke-linecap="round"
     id="line8" />
  <line
     x1="36"
     y1="90"
     x2="80"
     y2="90"
     stroke="#ffcc80"
     stroke-width="2.5"
     stroke-linecap="round"
     id="line9" />
  <line
     x1="36"
     y1="104"
     x2="68"
     y2="104"
     stroke="#ffe0b2"
     stroke-width="2.5"
     stroke-linecap="round"
     id="line10" />
  <!-- Checkmark on first line -->
  <polyline
     points="36,62 44,70 56,54"
     fill="none"
     stroke="#ff6d00"
     stroke-width="5"
     stroke-linecap="round"
     stroke-linejoin="round"
     id="polyline10" />
  <!-- Outer flame -->
  <path
     d="M64 4C64 4 40 30 40 50C40 64 48 72 56 75C50 68 50 58 60 44            C64 38 64 38 68 44C78 58 78 68 72 75C80 72 88 64 88 50            C88 30 64 4 64 4Z"
     fill="url(#flame1)"
     opacity="0.9"
     id="path10" />
  <!-- Inner flame (shifted down so it sits inside the outer flame properly) -->
  <path
     d="M 64,35.661613 C 64,35.661613 50,54 50,62 c 0,8 2,11 6,13 -2,-4 1.497674,-9.244852 5.497674,-15.244852 2,-4 3.529294,-4.025379 5.529294,-0.02538 C 71.026968,65.729769 74,71 72,75 76,73 78.188924,70 78.188924,62 78.188924,54 64,35.661613 64,35.661613 Z"
     fill="url(#flame2)"
     opacity="0.85"
     id="path11"
     style="fill:url(#flame2)"
     sodipodi:nodetypes="csccccsc" />
</svg>
